<svg width="529" height="317" viewBox="0 0 529 317" fill="none" xmlns="http://www.w3.org/2000/svg">
<path d="M0 316.391L528.84 316.391" stroke="#3E3D3C"/>
<path d="M273.773 172.699C271.207 164.515 258.864 172.188 249.104 164.515C239.344 156.842 239.343 140.473 239.343 140.473L240.367 112.339C240.367 112.339 248.59 107.224 252.191 102.109C252.191 102.109 255.785 111.828 265.04 121.035C274.295 130.243 280.454 131.266 280.454 131.266C280.454 131.266 284.059 120.524 290.736 125.639C297.414 130.754 290.736 147.635 290.736 147.635L298.442 179.349C298.442 179.349 293.816 195.206 277.888 192.649C261.96 190.091 265.04 183.953 265.04 183.953C265.04 183.953 276.338 180.884 273.773 172.699Z" fill="#FFCEBD" stroke="#3E3D3C"/>
<path d="M243.904 127.423H249.848C249.848 127.423 254.452 127.423 255.475 131.714C256.498 136.005 248.659 142.365 250.871 147.804C251.436 149.193 252.406 148.876 252.406 148.876H259.567" stroke="#3E3D3C"/>
<path d="M265.268 133.562C263.393 133.562 261.7 134.401 260.809 135.241C259.917 136.08 261.957 137.085 263.039 137.339C264.823 137.759 265.268 137.759 267.051 137.339C268.371 137.029 270.173 135.66 269.727 135.241C269.281 134.821 267.144 133.562 265.268 133.562Z" fill="white" stroke="#3E3D3C"/>
<rect x="262.635" y="135.709" width="2.04609" height="2.04609" fill="#3E3D3C"/>
<path d="M247.876 133.562C246 133.562 244.308 134.401 243.416 135.241C242.524 136.08 244.564 137.085 245.646 137.339C247.43 137.759 247.876 137.759 249.659 137.339C250.978 137.029 252.78 135.66 252.334 135.241C251.889 134.821 249.751 133.562 247.876 133.562Z" fill="white" stroke="#3E3D3C"/>
<rect x="245.244" y="135.709" width="2.04609" height="2.04609" fill="#3E3D3C"/>
<path d="M255.475 156.58C255.475 156.58 259.541 156.904 261.613 155.557C263.891 154.077 265.705 149.419 265.705 149.419" stroke="#3E3D3C"/>
<path d="M311.807 134.846C321.572 157.353 330.823 159.138 351.381 185.225C371.938 211.313 357.548 235.866 357.548 235.866C357.548 235.866 339.503 200.457 337.447 197.388C335.391 194.319 327.578 185.978 318.327 182.766C309.076 179.554 298.445 178.064 298.445 178.064L290.736 147.884C290.736 147.884 297.417 128.958 290.222 125.377C283.027 121.797 280.971 131.004 280.971 131.004C280.971 131.004 275.318 132.027 264.525 120.774C253.732 109.52 252.191 101.086 252.191 101.086C252.191 101.086 250.649 104.405 246.537 107.985C242.426 111.566 240.37 113.362 240.37 113.362V101.086C240.37 101.086 240.884 98.5282 244.482 96.4821C248.079 94.436 252.191 95.459 252.191 95.459C252.191 95.459 259.48 88.0855 265.553 86.2516C271.315 84.5119 280.971 86.2516 280.971 86.2516C309.752 95.459 302.043 112.339 311.807 134.846Z" fill="#3E3D3C" stroke="#3E3D3C"/>
<path d="M338.019 197.286C325.638 181.079 299.474 178.83 299.474 178.83C299.474 178.83 294.849 192.914 282 192.429C269.152 191.943 264.526 184.172 264.526 184.172C264.526 184.172 256.515 184.686 250.84 187.265C232.282 195.701 223.268 210.759 217.659 221.007C194.532 263.26 190.096 275.965 190.096 275.965L216.527 291.864L240.16 270.494V316.045H339.697V313.234C352.069 309.297 360.106 287.927 361.629 278.93C366.164 252.141 356.18 221.057 338.019 197.286Z" fill="#FF760D"/>
<path d="M240.16 270.494V316.045H339.697V313.234C352.069 309.297 360.106 287.927 361.629 278.93C366.164 252.141 356.18 221.057 338.019 197.286C325.638 181.079 299.474 178.83 299.474 178.83C299.474 178.83 294.849 192.914 282 192.429C269.152 191.943 264.526 184.172 264.526 184.172C264.526 184.172 256.515 184.686 250.84 187.265C232.282 195.701 223.268 210.759 217.659 221.007C194.532 263.26 190.096 275.965 190.096 275.965L216.527 291.864L240.16 270.494ZM240.16 270.494C240.16 270.494 237.912 253.624 242.973 237.315" stroke="#3E3D3C"/>
<path d="M320.576 274.399L266.581 275.965V297.82V312.671H339.696M320.576 274.399V231.535M320.576 274.399L338.018 274.147" stroke="#3E3D3C"/>
<path d="M206.071 306.339C206.071 306.339 215.185 292.89 215.44 292.375C215.695 291.861 215.246 287.881 214.125 285.288C212.475 281.474 210.51 279.547 206.912 277.371C202.999 275.003 199.33 275.125 195.708 274.807C192.086 274.488 187.344 277.917 182.688 281.847C178.032 285.777 167.241 302.843 167.241 302.843C167.241 302.843 167.74 307.03 169.803 307.641C171.06 308.013 171.946 307.697 173.115 307.121C174.567 306.406 175.86 304.057 175.86 304.057C175.86 304.057 175.006 307.187 176.154 308.535C176.888 309.397 177.602 309.796 178.74 309.885C179.712 309.962 180.273 309.663 181.144 309.238C182.977 308.342 184.478 305.27 184.478 305.27C184.478 305.27 183.923 308.528 186.588 310.004C189.252 311.481 191.079 307.679 191.079 307.679C191.079 307.679 191.864 310.541 193.392 310.963C194.492 311.266 196.25 310.379 196.25 310.379L201.694 301.286C201.694 301.286 201.131 304.871 202.896 305.892C204.661 306.913 206.071 306.339 206.071 306.339Z" fill="#FFCEBD"/>
<path d="M201.694 301.286C201.694 301.286 201.131 304.871 202.896 305.892C204.661 306.913 206.071 306.339 206.071 306.339C206.071 306.339 215.185 292.89 215.44 292.375C215.695 291.861 215.246 287.881 214.125 285.288C212.475 281.474 210.51 279.547 206.912 277.371C202.999 275.003 199.33 275.125 195.708 274.807C192.086 274.488 187.344 277.917 182.688 281.847C178.032 285.777 167.241 302.843 167.241 302.843C167.241 302.843 167.74 307.03 169.803 307.641C171.06 308.013 171.946 307.697 173.115 307.121C174.567 306.406 175.86 304.057 175.86 304.057M201.694 301.286L196.25 310.379C196.25 310.379 194.492 311.266 193.392 310.963C191.864 310.541 191.079 307.679 191.079 307.679M201.694 301.286C201.694 301.286 205.626 294.055 209.679 290.578M191.079 307.679C191.079 307.679 189.252 311.481 186.588 310.004C183.923 308.528 184.478 305.27 184.478 305.27M191.079 307.679C190.318 307.031 194.472 297.238 202.103 288.525M184.478 305.27C184.478 305.27 182.977 308.342 181.144 309.238C180.273 309.663 179.712 309.962 178.74 309.885C177.602 309.796 176.888 309.397 176.154 308.535C175.006 307.187 175.86 304.057 175.86 304.057M184.478 305.27C184.478 305.27 187.086 295.408 195.503 286.117M175.86 304.057C180.815 296.715 179.799 295.645 188.835 284.192" stroke="#3E3D3C"/>
<path d="M249.157 304.435L266.59 306.093V283.428L235.098 284.534C235.098 284.534 221.815 287.534 215.416 292.826C210.743 296.69 205.855 304.988 205.855 304.988C205.855 304.988 205.855 307.752 206.98 309.41C208.36 311.444 210.916 309.963 212.041 308.857C213.166 307.752 214.291 303.882 214.291 303.882C214.291 303.882 213.867 307.068 214.853 308.305C215.531 309.154 216.061 309.622 217.103 309.963C218.576 310.446 221.039 309.41 221.039 309.41L223.851 304.435C223.851 304.435 222.164 308.857 224.976 309.963C227.788 311.069 230.037 309.41 230.037 309.41L234.536 304.988C234.536 304.988 233.284 307.627 234.536 308.857C236.223 310.516 240.159 309.41 240.159 309.41L249.157 304.435Z" fill="#FFCEBD"/>
<path d="M234.536 304.988C234.536 304.988 233.284 307.627 234.536 308.857C236.223 310.516 240.159 309.41 240.159 309.41L249.157 304.435L266.59 306.093V283.428L235.098 284.534C235.098 284.534 221.815 287.534 215.416 292.826C210.743 296.69 205.855 304.988 205.855 304.988C205.855 304.988 205.855 307.752 206.98 309.41C208.36 311.444 210.916 309.963 212.041 308.857C213.166 307.752 214.291 303.882 214.291 303.882M234.536 304.988L230.037 309.41C230.037 309.41 227.788 311.069 224.976 309.963C222.164 308.857 223.851 304.435 223.851 304.435M234.536 304.988C234.536 304.988 240.722 300.013 246.345 297.801M223.851 304.435L221.039 309.41C221.039 309.41 218.576 310.446 217.103 309.963C216.061 309.622 215.531 309.154 214.853 308.305C213.867 307.068 214.291 303.882 214.291 303.882M223.851 304.435C223.851 304.435 231.161 296.696 240.159 293.379M214.291 303.882C214.291 303.882 222.164 292.273 232.286 290.062" stroke="#3E3D3C"/>
<path d="M171.53 309.892L145.954 221.167C145.83 220.739 145.438 220.444 144.993 220.444H45.2438C44.5729 220.444 44.0923 221.092 44.2866 221.734L70.9272 309.75C70.9556 309.844 70.97 309.942 70.97 310.04V314.482C70.97 315.035 71.4178 315.482 71.97 315.482H167.662H258.842C259.394 315.482 259.842 315.035 259.842 314.482V310.892C259.842 310.34 259.394 309.892 258.842 309.892H171.53Z" fill="#C0C0C0"/>
<path d="M171.53 309.892L145.954 221.167C145.83 220.739 145.438 220.444 144.993 220.444H45.2438C44.5729 220.444 44.0923 221.092 44.2866 221.734L70.9272 309.75C70.9556 309.844 70.97 309.942 70.97 310.04V314.482C70.97 315.035 71.4178 315.482 71.97 315.482H167.662M167.662 315.482V310.892C167.662 310.34 168.11 309.892 168.662 309.892H258.842C259.394 309.892 259.842 310.34 259.842 310.892V314.482C259.842 315.035 259.394 315.482 258.842 315.482H167.662Z" stroke="#3E3D3C"/>
<path d="M47.2713 227.755C47.2713 227.755 73.2486 224.583 105.545 263.955C137.841 303.327 157.493 309.859 157.493 309.859H171.552L171.553 314.921H71.4527V309.859L47.2713 227.755Z" fill="#3E3D3C" stroke="#3E3D3C"/>
<circle cx="6.7483" cy="6.7483" r="6.2483" transform="matrix(-1 0 0 1 112.504 260.934)" fill="white" stroke="#3E3D3C"/>
<path d="M380.187 293.81C380.187 282.563 391.996 282.563 391.996 282.563V288.186C391.996 288.186 385.049 287.89 385.049 293.81C385.049 299.729 391.996 299.914 391.996 299.914V304.65C391.996 304.65 380.187 305.057 380.187 293.81Z" fill="#F9B501"/>
<path d="M427.425 271.057V316.045H391.996V304.65V299.914V288.186V282.563V271.057H427.425Z" fill="#F9B501"/>
<path d="M391.996 282.563V271.057H427.425V316.045H391.996V304.65M391.996 282.563C391.996 282.563 380.187 282.563 380.187 293.81C380.187 305.057 391.996 304.65 391.996 304.65M391.996 282.563V288.186M391.996 304.65V299.914M391.996 299.914C391.996 299.914 385.049 299.729 385.049 293.81C385.049 287.89 391.996 288.186 391.996 288.186M391.996 299.914V288.186" stroke="#3E3D3C" stroke-width="0.5"/>
<path d="M483.661 293.366C483.661 282.119 471.851 282.119 471.851 282.119V287.742C471.851 287.742 478.798 287.446 478.798 293.366C478.798 299.285 471.851 299.47 471.851 299.47V304.206C471.851 304.206 483.661 304.613 483.661 293.366Z" fill="#3E3D3C"/>
<path d="M436.423 271.056V316.045H471.851V304.206V299.47V287.742V282.119V271.056H436.423Z" fill="#3E3D3C"/>
<path d="M471.851 282.119V271.056H436.423V316.045H471.851V304.206M471.851 282.119C471.851 282.119 483.661 282.119 483.661 293.366C483.661 304.613 471.851 304.206 471.851 304.206M471.851 282.119V287.742M471.851 304.206V299.47M471.851 299.47C471.851 299.47 478.798 299.285 478.798 293.366C478.798 287.446 471.851 287.742 471.851 287.742M471.851 299.47V287.742" stroke="#3E3D3C"/>
</svg>
